<svg height="40" viewBox="0 0 24 24" fill="none" aria-labelledby="r1v9zqvotmpcyd1fcbrf3m3z" class="AsyncIcon__StyledIcon-design-system__sc-9oyiwf-0 sc-70c4d879-2 bvUoNw dxJonX" focusable="false" preserveAspectRatio="xMidYMid meet"><title id="r1v9zqvotmpcyd1fcbrf3m3z">Upper Body</title><path fill-rule="evenodd" clip-rule="evenodd" d="M4.727 2.5h-.285C4.198 2.5 4 2.314 4 2.086V.414C4 .186 4.198 0 4.442 0h.285c.167 0 .32.089.395.23l.324.606h2.108l.324-.607A.446.446 0 0 1 8.273 0h.285C8.802 0 9 .186 9 .414v1.672c0 .228-.198.414-.442.414h-.285a.446.446 0 0 1-.395-.23l-.324-.606H5.446l-.324.607a.446.446 0 0 1-.395.229Zm12 0h-.285c-.244 0-.442-.186-.442-.414V.414c0-.228.198-.414.442-.414h.285c.167 0 .32.089.395.23l.324.606h2.108l.324-.607A.446.446 0 0 1 20.273 0h.285c.244 0 .442.186.442.414v1.672c0 .228-.198.414-.442.414h-.285a.446.446 0 0 1-.395-.23l-.324-.606h-2.108l-.324.607a.446.446 0 0 1-.395.229ZM14.5 3a2 2 0 1 1-4 0 2 2 0 0 1 4 0ZM5.75 3l-.242 3.644a.75.75 0 0 0 .742.856l3.882.31.201 1.21c.109.652.163 1.312.163 1.973v.63c0 .897-.266 1.79-.526 2.663-.059.2-.118.398-.174.595l-2.013 7.148a.75.75 0 0 0 1.432.442l2.99-8.264a.314.314 0 0 1 .59 0l2.99 8.264a.749.749 0 1 0 1.431-.442l-2.026-7.195c-.056-.197-.115-.395-.174-.595-.26-.873-.526-1.766-.526-2.662v-.584c0-.66.054-1.32.163-1.973l.201-1.208L18.75 7.5a.75.75 0 0 0 .742-.856L19.317 3H18v3H7V3H5.75Z" fill="currentColor"></path></svg>