<svg height="40" viewBox="0 0 24 24" fill="none" aria-labelledby="bf8nv6o45upw5fscdqoyggaq" class="AsyncIcon__StyledIcon-design-system__sc-9oyiwf-0 sc-70c4d879-2 bvUoNw dxJonX" focusable="false" preserveAspectRatio="xMidYMid meet"><title id="bf8nv6o45upw5fscdqoyggaq">Cycling</title><path fill-rule="evenodd" clip-rule="evenodd" d="M12.25 4a2 2 0 1 0 0-4 2 2 0 0 0 0 4Zm5.515 6.353a.75.75 0 0 1 .735-.603H21a.75.75 0 0 1 0 1.5h-1.885l-.558 2.789a4 4 0 0 1 2.752 6.21l2.471 2.47a.75.75 0 1 1-1.06 1.061l-2.472-2.471a4 4 0 1 1-3.237-7.186l.004-.02.75-3.75ZM3.18 19.262a.752.752 0 0 1 .066-.068A3 3 0 0 1 4.65 15.32l-.634-1.9a.25.25 0 0 0-.237-.171H2a.75.75 0 0 1 0-1.5h1.78a1.75 1.75 0 0 1 1.66 1.197l.685 2.056a3 3 0 1 1-1.937 5.388L1.32 23.738a.75.75 0 1 1-1.138-.976l3-3.5ZM20.5 18a2.5 2.5 0 1 1-5 0 2.5 2.5 0 0 1 5 0ZM6 19.5a1.5 1.5 0 1 0 0-3 1.5 1.5 0 0 0 0 3Zm6.256-3.225v3.979a.747.747 0 0 1-.748.746.747.747 0 0 1-.749-.746v-6.1a.248.248 0 0 0-.138-.222l-3.353-1.67a2.73 2.73 0 0 1-1.01-4.03L8.9 4.523c.612-.86 1.952-.617 2.223.401l.93 3.5h2.947c.414 0 .749.334.749.746a.747.747 0 0 1-.749.746h-3.523a.748.748 0 0 1-.723-.555l-.552-2.077-1.84 2.748 3.248 2.63c.408.33.645.826.645 1.35v2.262ZM18.11 3.75c-.447 0-.845.252-.994.628L16.03 7.623c-.122.306.133.627.497.627h5.362c.447 0 .845-.252.994-.628l1.085-3.245c.122-.306-.133-.627-.497-.627H18.11Z" fill="currentColor"></path></svg>