<svg height="40" viewBox="0 0 24 24" fill="none" aria-labelledby="xg0pbvel1jykrj9yetastmcg" class="AsyncIcon__StyledIcon-design-system__sc-9oyiwf-0 sc-70c4d879-2 bvUoNw dxJonX" focusable="false" preserveAspectRatio="xMidYMid meet"><title id="xg0pbvel1jykrj9yetastmcg">Meditation</title><path fill-rule="evenodd" clip-rule="evenodd" d="M12 7.75a2 2 0 1 0 0-4 2 2 0 0 0 0 4Zm-.844.874c-.15.039-.293.097-.428.173l-.063.032a.748.748 0 0 0-.23.177 1.751 1.751 0 0 0-.231.249L8.44 11.557 5.274 12.56a.75.75 0 0 0 .452 1.43l3.392-1.073a.75.75 0 0 0 .369-.259l.816-1.066.084 3.268-3.492.995c-1.192.339-1.217 2.02-.035 2.393l.914.29L10 17.75l-1.895-.682 3.611-.787a1.335 1.335 0 0 1 .568 0l3.61.787L8.1 19.535a.75.75 0 1 0 .452 1.43L12 19.874l3.448 1.091a.75.75 0 0 0 .452-1.43l-1.414-.448 2.654-.84c1.182-.373 1.157-2.054-.035-2.393l-3.492-.995.083-3.249.822 1.053a.75.75 0 0 0 .364.253l3.392 1.073a.75.75 0 1 0 .452-1.43l-3.17-1.003L13.64 9.1a1.13 1.13 0 0 0-.027-.033.751.751 0 0 0-.31-.253 2.83 2.83 0 0 0-2.146-.19Zm9.931 10.202a.75.75 0 0 1 1.003.345l1.834 3.75A.75.75 0 0 1 23.25 24H.75a.75.75 0 0 1-.674-1.08l1.834-3.75a.75.75 0 0 1 1.347.66L1.951 22.5H22.05l-1.306-2.67a.75.75 0 0 1 .344-1.004Z" fill="currentColor"></path></svg>