<svg height="40" viewBox="0 0 24 24" fill="none" aria-labelledby="g4uei68rskqs8ootijj6hbci" class="AsyncIcon__StyledIcon-design-system__sc-9oyiwf-0 sc-70c4d879-2 bvUoNw dxJonX" focusable="false" preserveAspectRatio="xMidYMid meet"><title id="g4uei68rskqs8ootijj6hbci">Strength</title><path fill-rule="evenodd" clip-rule="evenodd" d="M15.621 5c0 1.105-.903 2-2.017 2a2.009 2.009 0 0 1-2.018-2c0-1.105.903-2 2.018-2 1.114 0 2.018.895 2.018 2Zm6.492 3.473-.203-.201a.453.453 0 0 0-.445-.118l-.664.2-1.504-1.49.202-.658a.443.443 0 0 0-.118-.442l-.204-.201c-.174-.173-.447-.182-.61-.02l-1.193 1.182c-.163.162-.154.433.02.605l.203.202c.12.118.292.164.446.117l.663-.2L20.21 8.94l-.202.658a.443.443 0 0 0 .119.441l.203.202c.174.172.448.181.611.02l1.192-1.182c.163-.162.155-.433-.02-.606Zm-8.537-.38a1.522 1.522 0 0 0-1.88-.436c-.549.27-.869.84-.83 1.43.208 3.246.052 5.125-.348 6.346-.374 1.144-.975 1.755-1.872 2.421l-6.51 3.698a.74.74 0 0 0-.306.983c.15.296.487.49.677.462.08-.011.27-.095.346-.133l7.62-3.751c1.113-.636 2.107-1.58 2.76-3.148.48-1.156.735-2.691.72-4.893l.714.937c.46.605 1.358.668 1.9.133l2.111-2.078a.737.737 0 0 0 0-1.054.765.765 0 0 0-1.07 0l-1.905 1.876-2.127-2.792Zm.777 8.689 2.782-.262a.25.25 0 0 1 .252.249v5.481c0 .413.339.747.756.747a.752.752 0 0 0 .757-.747v-5.73c0-.963-.79-1.744-1.765-1.744H15.13c-.105.45-.234.852-.385 1.217-.12.288-.251.549-.393.789Z" fill="currentColor"></path></svg>