<svg height="40" viewBox="0 0 24 24" fill="none" aria-labelledby="pv933xk1a35nkxt81apk1t0n" class="AsyncIcon__StyledIcon-design-system__sc-9oyiwf-0 sc-70c4d879-2 bvUoNw dxJonX" focusable="false" preserveAspectRatio="xMidYMid meet"><title id="pv933xk1a35nkxt81apk1t0n">Rowing</title><path fill-rule="evenodd" clip-rule="evenodd" d="M9.25 7a2 2 0 1 0 0-4 2 2 0 0 0 0 4Zm-.997.639c-.217-.235-.607-.652-1.215-.639a1.592 1.592 0 0 0-.685.19 5.65 5.65 0 0 0-.546.33C3.782 8.862 2.4 12.185 3.26 15.934 3.41 16.579 4.016 17 4.672 17a.872.872 0 0 0 .332-.066l5.677-2.338 4.129 2.3c.376.21.86.091 1.08-.265a.726.726 0 0 0-.28-1.024l-4.474-2.493a.828.828 0 0 0-.667-.06l-4.406.726c.228-2.15.999-3.904 1.456-4.667l1.71 1.84a.8.8 0 0 0 .424.236l3.268.675c.426.088.847-.168.94-.572.092-.403-.178-.802-.604-.89l-3.014-.622-1.99-2.141Zm11.76 7.111 1.556 1.816-1.23 1.934H3.803a1.75 1.75 0 0 0-1.484.823l-2.206 3.53a.75.75 0 1 0 1.272.794l2.206-3.53A.25.25 0 0 1 3.804 20h16.53l2.28 3.648a.75.75 0 0 0 1.272-.796l-2.25-3.598 1.397-2.195a1 1 0 0 0-.084-1.188l-.961-1.121h-1.976ZM17.956 9a1 1 0 0 0-.942.667l-1.03 2.917a.5.5 0 0 0 .472.666h5.085a1 1 0 0 0 .943-.667l1.03-2.917A.5.5 0 0 0 23.043 9h-5.085Z" fill="currentColor"></path></svg>