<svg height="40" viewBox="0 0 24 24" fill="none" aria-labelledby="kwxujdz1y5vpgpy6ml5mbbz6" class="AsyncIcon__StyledIcon-design-system__sc-9oyiwf-0 sc-70c4d879-2 bvUoNw dxJonX" focusable="false" preserveAspectRatio="xMidYMid meet"><title id="kwxujdz1y5vpgpy6ml5mbbz6">Running</title><path fill-rule="evenodd" clip-rule="evenodd" d="M16.5 5a2 2 0 1 0 0-4 2 2 0 0 0 0 4Zm-5.25 10.5-1.5-1L8.524 17H3.75a.75.75 0 0 0 0 1.5H9a.75.75 0 0 0 .679-.431L11.25 15.5Zm4.464-4.75h3.036a.75.75 0 0 0 0-1.5h-2.393l-.643 1.5Zm-1.877-5.482a.749.749 0 0 1 .171-.018 1.693 1.693 0 0 1 1.564 2.321l-2.068 5.169 3.194 3.158a.75.75 0 0 1 .3.537l.5 5.75a.75.75 0 1 1-1.495.13l-.47-5.401-4.068-2.848a1.75 1.75 0 0 1-.625-2.073l1.946-4.955-2.688.597-.877 3.071a.75.75 0 0 1-1.442-.412l1-3.5a.75.75 0 0 1 .558-.526l4.5-1Z" fill="currentColor"></path></svg>