<svg height="40" viewBox="0 0 24 24" fill="none" aria-labelledby="pns7rgtgvw24oxfrrswbkqby" class="AsyncIcon__StyledIcon-design-system__sc-9oyiwf-0 sc-70c4d879-2 bvUoNw dxJonX" focusable="false" preserveAspectRatio="xMidYMid meet"><title id="pns7rgtgvw24oxfrrswbkqby">Stretching</title><path fill-rule="evenodd" clip-rule="evenodd" d="m7.5 21 .49-7.099a.163.163 0 0 1 .306-.064l2.567 4.889 1.702 3.829a.75.75 0 1 0 1.37-.61l-3.51-7.978c-.278-.634-.413-1.335-.252-2.009.233-.978.704-2.017 1.67-2.768l2.074 2.829-1.985-.497a.75.75 0 0 0-.364 1.456l3.329.832c.908.227 1.602-.807 1.048-1.562L11.187 5.76A10.459 10.459 0 0 1 18 3.25h1a.75.75 0 0 0 0-1.5h-1c-6.627 0-12 5.373-12 12v8.5a.75.75 0 0 0 1.5 0V21Zm8.25-12a2 2 0 1 0 0-4 2 2 0 0 0 0 4Z" fill="currentColor"></path></svg>