<svg height="40" viewBox="0 0 24 24" fill="none" aria-labelledby="udu72vdy2jvunpdcg4hbiy5o" class="AsyncIcon__StyledIcon-design-system__sc-9oyiwf-0 sc-70c4d879-2 bvUoNw dxJonX" focusable="false" preserveAspectRatio="xMidYMid meet"><title id="udu72vdy2jvunpdcg4hbiy5o">Walking</title><path fill-rule="evenodd" clip-rule="evenodd" d="M15 5a2 2 0 1 0 0-4 2 2 0 0 0 0 4Zm-2.606.34a.749.749 0 0 1 .36-.09 1.9 1.9 0 0 1 1.827 2.409l-1.553 5.59 1.95 2.672.034.03a.75.75 0 0 1 .238.549v5.75a.75.75 0 0 1-1.5 0v-5.424l-3.065-2.86a1.75 1.75 0 0 1-.488-1.76l1.344-4.703-1.424.766-.906 2.718a.75.75 0 0 1-1.423-.474l1-3a.75.75 0 0 1 .356-.423l3.25-1.75ZM9.75 15 11 16.25l-.797 1.771-2.282 4.564a.75.75 0 1 1-1.342-.67l2.218-4.436L9.75 15Zm7.737-3.461-2.211-.738-.475 1.423 2.212.737a.75.75 0 0 0 .474-1.422Z" fill="currentColor"></path></svg>