<svg height="40" viewBox="0 0 24 24" fill="none" aria-labelledby="w8ea4192xid5g7jcnhc8qud5" class="AsyncIcon__StyledIcon-design-system__sc-9oyiwf-0 sc-70c4d879-2 bvUoNw dxJonX" focusable="false" preserveAspectRatio="xMidYMid meet"><title id="w8ea4192xid5g7jcnhc8qud5">Yoga</title><path fill-rule="evenodd" clip-rule="evenodd" d="M17 3a2 2 0 1 1-4 0 2 2 0 0 1 4 0ZM8.75 14l1.75 1-5.373 7.662a.75.75 0 0 1-1.254-.824L8.75 14ZM21 5.75H6a.75.75 0 0 0 0 1.5h5.175l-1.841 3.07a1.75 1.75 0 0 0 .488 2.328l5.823 4.13a.25.25 0 0 1 .105.197v5.275a.75.75 0 1 0 1.5 0v-5.542a1.75 1.75 0 0 0-.606-1.325l-3.983-3.44 2.933-4.693H21a.75.75 0 0 0 0-1.5Z" fill="currentColor"></path></svg>